# Blender 4.1.1
# www.blender.org
mtllib fan.mtl
o Cube
v 0.656341 0.188033 0.000000
v 0.656341 -0.188033 0.000000
v -0.399185 0.054237 8.000000
v -0.399185 -0.054237 8.000000
v -0.656341 0.188033 0.000000
v -0.656341 -0.188033 0.000000
v -0.777822 0.054237 8.000000
v -0.777822 -0.054237 8.000000
v -0.656341 -0.188033 1.000000
v -0.667319 -0.186463 2.050100
v -0.698389 -0.179263 3.233221
v -0.743344 -0.166194 4.464583
v -0.791483 -0.147215 5.651242
v -0.827462 -0.122273 6.699458
v -0.831212 -0.091305 7.514424
v 0.656341 0.188033 1.000000
v 0.634403 0.186463 2.050100
v 0.553065 0.179263 3.233221
v 0.416876 0.166194 4.464583
v 0.236242 0.147215 5.651242
v 0.026138 0.122273 6.699458
v -0.193805 0.091305 7.514424
v -0.831212 0.091305 7.514424
v -0.827462 0.122273 6.699458
v -0.791483 0.147215 5.651242
v -0.743344 0.166194 4.464583
v -0.698389 0.179263 3.233221
v -0.667319 0.186463 2.050100
v -0.656341 0.188033 1.000000
v -0.193805 -0.091305 7.514424
v 0.026138 -0.122273 6.699458
v 0.236242 -0.147215 5.651242
v 0.416876 -0.166194 4.464583
v 0.553065 -0.179263 3.233221
v 0.634403 -0.186463 2.050100
v 0.656341 -0.188033 1.000000
vn -0.0000 0.9971 0.0761
vn -0.0000 -0.0000 1.0000
vn -1.0000 -0.0000 -0.0000
vn -0.0000 -0.9971 0.0761
vn 0.9210 -0.0000 0.3896
vn -0.0000 -0.0000 -1.0000
vn 1.0000 -0.0000 -0.0000
vn 0.9998 -0.0000 0.0209
vn 0.9976 -0.0000 0.0686
vn 0.9939 -0.0000 0.1099
vn 0.9886 -0.0000 0.1505
vn 0.9805 -0.0000 0.1965
vn 0.9655 -0.0000 0.2606
vn -0.0000 -1.0000 -0.0000
vn -0.0000 -1.0000 0.0015
vn -0.0000 -1.0000 0.0061
vn -0.0000 -0.9999 0.0106
vn -0.0000 -0.9999 0.0160
vn -0.0000 -0.9997 0.0238
vn -0.0000 -0.9993 0.0380
vn -0.9940 -0.0000 0.1093
vn -1.0000 -0.0000 -0.0046
vn -0.9994 -0.0000 -0.0343
vn -0.9992 -0.0000 -0.0405
vn -0.9993 -0.0000 -0.0365
vn -0.9997 -0.0000 -0.0263
vn -0.9999 -0.0000 -0.0105
vn -0.0000 1.0000 -0.0000
vn -0.0000 1.0000 0.0015
vn -0.0000 1.0000 0.0061
vn -0.0000 0.9999 0.0106
vn -0.0000 0.9999 0.0160
vn -0.0000 0.9997 0.0238
vn -0.0000 0.9993 0.0380
vt 0.625000 0.718750
vt 0.875000 0.718750
vt 0.875000 0.750000
vt 0.625000 0.750000
vt 0.375000 0.750000
vt 0.625000 1.000000
vt 0.375000 1.000000
vt 0.375000 0.218750
vt 0.625000 0.218750
vt 0.625000 0.250000
vt 0.375000 0.250000
vt 0.125000 0.718750
vt 0.375000 0.718750
vt 0.125000 0.750000
vt 0.625000 0.500000
vt 0.375000 0.500000
vt 0.625000 0.531250
vt 0.375000 0.531250
vt 0.625000 0.562500
vt 0.375000 0.562500
vt 0.625000 0.593750
vt 0.375000 0.593750
vt 0.625000 0.625000
vt 0.375000 0.625000
vt 0.625000 0.656250
vt 0.375000 0.656250
vt 0.625000 0.687500
vt 0.375000 0.687500
vt 0.125000 0.500000
vt 0.125000 0.531250
vt 0.125000 0.562500
vt 0.125000 0.593750
vt 0.125000 0.625000
vt 0.125000 0.656250
vt 0.125000 0.687500
vt 0.375000 0.000000
vt 0.625000 0.000000
vt 0.625000 0.031250
vt 0.375000 0.031250
vt 0.625000 0.062500
vt 0.375000 0.062500
vt 0.625000 0.093750
vt 0.375000 0.093750
vt 0.625000 0.125000
vt 0.375000 0.125000
vt 0.625000 0.156250
vt 0.375000 0.156250
vt 0.625000 0.187500
vt 0.375000 0.187500
vt 0.875000 0.500000
vt 0.875000 0.531250
vt 0.875000 0.562500
vt 0.875000 0.593750
vt 0.875000 0.625000
vt 0.875000 0.656250
vt 0.875000 0.687500
s 0
usemtl Material
f 22/1/1 23/2/1 7/3/1 3/4/1
f 4/5/2 3/4/2 7/6/2 8/7/2
f 9/8/3 29/9/3 5/10/3 6/11/3
f 15/12/4 30/13/4 4/5/4 8/14/4
f 30/13/5 22/1/5 3/4/5 4/5/5
f 6/11/6 5/10/6 1/15/6 2/16/6
f 2/16/7 1/15/7 16/17/7 36/18/7
f 36/18/8 16/17/8 17/19/8 35/20/8
f 35/20/9 17/19/9 18/21/9 34/22/9
f 34/22/10 18/21/10 19/23/10 33/24/10
f 33/24/11 19/23/11 20/25/11 32/26/11
f 32/26/12 20/25/12 21/27/12 31/28/12
f 31/28/13 21/27/13 22/1/13 30/13/13
f 6/29/14 2/16/14 36/18/14 9/30/14
f 9/30/15 36/18/15 35/20/15 10/31/15
f 10/31/16 35/20/16 34/22/16 11/32/16
f 11/32/17 34/22/17 33/24/17 12/33/17
f 12/33/18 33/24/18 32/26/18 13/34/18
f 13/34/19 32/26/19 31/28/19 14/35/19
f 14/35/20 31/28/20 30/13/20 15/12/20
f 8/36/21 7/37/21 23/38/21 15/39/21
f 15/39/22 23/38/22 24/40/22 14/41/22
f 14/41/23 24/40/23 25/42/23 13/43/23
f 13/43/24 25/42/24 26/44/24 12/45/24
f 12/45/25 26/44/25 27/46/25 11/47/25
f 11/47/26 27/46/26 28/48/26 10/49/26
f 10/49/27 28/48/27 29/9/27 9/8/27
f 1/15/28 5/50/28 29/51/28 16/17/28
f 16/17/29 29/51/29 28/52/29 17/19/29
f 17/19/30 28/52/30 27/53/30 18/21/30
f 18/21/31 27/53/31 26/54/31 19/23/31
f 19/23/32 26/54/32 25/55/32 20/25/32
f 20/25/33 25/55/33 24/56/33 21/27/33
f 21/27/34 24/56/34 23/2/34 22/1/34
o Cube.001
v -0.328171 0.188033 0.568408
v -0.328171 -0.188033 0.568408
v -6.728611 0.054237 -4.345704
v -6.728611 -0.054237 -4.345704
v 0.328171 0.188033 -0.568408
v 0.328171 -0.188033 -0.568408
v -6.539293 0.054237 -4.673613
v -6.539293 -0.054237 -4.673613
v -0.537855 -0.188033 -1.068408
v -1.441779 -0.186463 -1.602965
v -2.450857 -0.179263 -2.221433
v -3.494770 -0.166194 -2.876046
v -4.498378 -0.147215 -3.511065
v -5.388170 -0.122273 -4.066331
v -6.092077 -0.091305 -4.477062
v -1.194196 0.188033 0.068408
v -2.092640 0.186463 -0.475641
v -3.076584 0.179263 -1.137642
v -4.074881 0.166194 -1.871266
v -5.012240 0.147215 -2.621029
v -5.814970 0.122273 -3.327092
v -6.410780 0.091305 -3.925051
v -6.092077 0.091305 -4.477062
v -5.388170 0.122273 -4.066331
v -4.498378 0.147215 -3.511065
v -3.494770 0.166194 -2.876046
v -2.450857 0.179263 -2.221433
v -1.441779 0.186463 -1.602965
v -0.537855 0.188033 -1.068408
v -6.410780 -0.091305 -3.925051
v -5.814970 -0.122273 -3.327092
v -5.012240 -0.147215 -2.621029
v -4.074881 -0.166194 -1.871266
v -3.076584 -0.179263 -1.137642
v -2.092640 -0.186463 -0.475641
v -1.194196 -0.188033 0.068408
vn -0.0659 0.9971 -0.0381
vn -0.8660 -0.0000 -0.5000
vn 0.5000 -0.0000 -0.8660
vn -0.0659 -0.9971 -0.0381
vn -0.7979 -0.0000 0.6028
vn 0.8660 -0.0000 0.5000
vn -0.5000 -0.0000 0.8660
vn -0.5180 -0.0000 0.8554
vn -0.5582 -0.0000 0.8297
vn -0.5922 -0.0000 0.8058
vn -0.6246 -0.0000 0.7809
vn -0.6604 -0.0000 0.7509
vn -0.7084 -0.0000 0.7058
vn -0.0000 -1.0000 -0.0000
vn -0.0013 -1.0000 -0.0007
vn -0.0053 -1.0000 -0.0030
vn -0.0092 -0.9999 -0.0053
vn -0.0138 -0.9999 -0.0080
vn -0.0206 -0.9997 -0.0119
vn -0.0329 -0.9993 -0.0190
vn 0.4024 -0.0000 -0.9155
vn 0.5040 -0.0000 -0.8637
vn 0.5294 -0.0000 -0.8484
vn 0.5347 -0.0000 -0.8450
vn 0.5313 -0.0000 -0.8472
vn 0.5226 -0.0000 -0.8526
vn 0.5090 -0.0000 -0.8608
vn -0.0000 1.0000 -0.0000
vn -0.0013 1.0000 -0.0007
vn -0.0053 1.0000 -0.0030
vn -0.0092 0.9999 -0.0053
vn -0.0138 0.9999 -0.0080
vn -0.0206 0.9997 -0.0119
vn -0.0329 0.9993 -0.0190
vt 0.625000 0.718750
vt 0.875000 0.718750
vt 0.875000 0.750000
vt 0.625000 0.750000
vt 0.375000 0.750000
vt 0.625000 1.000000
vt 0.375000 1.000000
vt 0.375000 0.218750
vt 0.625000 0.218750
vt 0.625000 0.250000
vt 0.375000 0.250000
vt 0.125000 0.718750
vt 0.375000 0.718750
vt 0.125000 0.750000
vt 0.625000 0.500000
vt 0.375000 0.500000
vt 0.625000 0.531250
vt 0.375000 0.531250
vt 0.625000 0.562500
vt 0.375000 0.562500
vt 0.625000 0.593750
vt 0.375000 0.593750
vt 0.625000 0.625000
vt 0.375000 0.625000
vt 0.625000 0.656250
vt 0.375000 0.656250
vt 0.625000 0.687500
vt 0.375000 0.687500
vt 0.125000 0.500000
vt 0.125000 0.531250
vt 0.125000 0.562500
vt 0.125000 0.593750
vt 0.125000 0.625000
vt 0.125000 0.656250
vt 0.125000 0.687500
vt 0.375000 0.000000
vt 0.625000 0.000000
vt 0.625000 0.031250
vt 0.375000 0.031250
vt 0.625000 0.062500
vt 0.375000 0.062500
vt 0.625000 0.093750
vt 0.375000 0.093750
vt 0.625000 0.125000
vt 0.375000 0.125000
vt 0.625000 0.156250
vt 0.375000 0.156250
vt 0.625000 0.187500
vt 0.375000 0.187500
vt 0.875000 0.500000
vt 0.875000 0.531250
vt 0.875000 0.562500
vt 0.875000 0.593750
vt 0.875000 0.625000
vt 0.875000 0.656250
vt 0.875000 0.687500
s 0
usemtl Material
f 58/57/35 59/58/35 43/59/35 39/60/35
f 40/61/36 39/60/36 43/62/36 44/63/36
f 45/64/37 65/65/37 41/66/37 42/67/37
f 51/68/38 66/69/38 40/61/38 44/70/38
f 66/69/39 58/57/39 39/60/39 40/61/39
f 42/67/40 41/66/40 37/71/40 38/72/40
f 38/72/41 37/71/41 52/73/41 72/74/41
f 72/74/42 52/73/42 53/75/42 71/76/42
f 71/76/43 53/75/43 54/77/43 70/78/43
f 70/78/44 54/77/44 55/79/44 69/80/44
f 69/80/45 55/79/45 56/81/45 68/82/45
f 68/82/46 56/81/46 57/83/46 67/84/46
f 67/84/47 57/83/47 58/57/47 66/69/47
f 42/85/48 38/72/48 72/74/48 45/86/48
f 45/86/49 72/74/49 71/76/49 46/87/49
f 46/87/50 71/76/50 70/78/50 47/88/50
f 47/88/51 70/78/51 69/80/51 48/89/51
f 48/89/52 69/80/52 68/82/52 49/90/52
f 49/90/53 68/82/53 67/84/53 50/91/53
f 50/91/54 67/84/54 66/69/54 51/68/54
f 44/92/55 43/93/55 59/94/55 51/95/55
f 51/95/56 59/94/56 60/96/56 50/97/56
f 50/97/57 60/96/57 61/98/57 49/99/57
f 49/99/58 61/98/58 62/100/58 48/101/58
f 48/101/59 62/100/59 63/102/59 47/103/59
f 47/103/60 63/102/60 64/104/60 46/105/60
f 46/105/61 64/104/61 65/65/61 45/64/61
f 37/71/62 41/106/62 65/107/62 52/73/62
f 52/73/63 65/107/63 64/108/63 53/75/63
f 53/75/64 64/108/64 63/109/64 54/77/64
f 54/77/65 63/109/65 62/110/65 55/79/65
f 55/79/66 62/110/66 61/111/66 56/81/66
f 56/81/67 61/111/67 60/112/67 57/83/67
f 57/83/68 60/112/68 59/58/68 58/57/68
o Cube.002
v -0.328171 0.188033 -0.568408
v -0.328171 -0.188033 -0.568408
v 7.127796 0.054237 -3.654296
v 7.127796 -0.054237 -3.654296
v 0.328171 0.188033 0.568408
v 0.328171 -0.188033 0.568408
v 7.317114 0.054237 -3.326387
v 7.317114 -0.054237 -3.326387
v 1.194196 -0.188033 0.068408
v 2.109098 -0.186463 -0.447135
v 3.149246 -0.179263 -1.011788
v 4.238114 -0.166194 -1.588537
v 5.289860 -0.147215 -2.140177
v 6.215631 -0.122273 -2.633126
v 6.923288 -0.091305 -3.037362
v 0.537855 0.188033 -1.068408
v 1.458238 0.186463 -1.574459
v 2.523519 0.179263 -2.095579
v 3.658004 0.166194 -2.593317
v 4.775998 0.147215 -3.030213
v 5.788832 0.122273 -3.372365
v 6.604585 0.091305 -3.589373
v 6.923288 0.091305 -3.037362
v 6.215631 0.122273 -2.633126
v 5.289860 0.147215 -2.140177
v 4.238114 0.166194 -1.588537
v 3.149246 0.179263 -1.011788
v 2.109098 0.186463 -0.447135
v 1.194196 0.188033 0.068408
v 6.604585 -0.091305 -3.589373
v 5.788832 -0.122273 -3.372365
v 4.775998 -0.147215 -3.030213
v 3.658004 -0.166194 -2.593317
v 2.523519 -0.179263 -2.095579
v 1.458238 -0.186463 -1.574459
v 0.537855 -0.188033 -1.068408
vn 0.0659 0.9971 -0.0381
vn 0.8660 -0.0000 -0.5000
vn 0.5000 -0.0000 0.8660
vn 0.0659 -0.9971 -0.0381
vn -0.1231 -0.0000 -0.9924
vn -0.8660 -0.0000 0.5000
vn -0.5000 -0.0000 -0.8660
vn -0.4818 -0.0000 -0.8763
vn -0.4394 -0.0000 -0.8983
vn -0.4018 -0.0000 -0.9157
vn -0.3640 -0.0000 -0.9314
vn -0.3200 -0.0000 -0.9474
vn -0.2571 -0.0000 -0.9664
vn -0.0000 -1.0000 -0.0000
vn 0.0013 -1.0000 -0.0007
vn 0.0053 -1.0000 -0.0030
vn 0.0092 -0.9999 -0.0053
vn 0.0138 -0.9999 -0.0080
vn 0.0206 -0.9997 -0.0119
vn 0.0329 -0.9993 -0.0190
vn 0.5917 -0.0000 0.8062
vn 0.4960 -0.0000 0.8683
vn 0.4700 -0.0000 0.8827
vn 0.4645 -0.0000 0.8856
vn 0.4681 -0.0000 0.8837
vn 0.4771 -0.0000 0.8789
vn 0.4909 -0.0000 0.8712
vn -0.0000 1.0000 -0.0000
vn 0.0013 1.0000 -0.0007
vn 0.0053 1.0000 -0.0030
vn 0.0092 0.9999 -0.0053
vn 0.0138 0.9999 -0.0080
vn 0.0206 0.9997 -0.0119
vn 0.0329 0.9993 -0.0190
vt 0.625000 0.718750
vt 0.875000 0.718750
vt 0.875000 0.750000
vt 0.625000 0.750000
vt 0.375000 0.750000
vt 0.625000 1.000000
vt 0.375000 1.000000
vt 0.375000 0.218750
vt 0.625000 0.218750
vt 0.625000 0.250000
vt 0.375000 0.250000
vt 0.125000 0.718750
vt 0.375000 0.718750
vt 0.125000 0.750000
vt 0.625000 0.500000
vt 0.375000 0.500000
vt 0.625000 0.531250
vt 0.375000 0.531250
vt 0.625000 0.562500
vt 0.375000 0.562500
vt 0.625000 0.593750
vt 0.375000 0.593750
vt 0.625000 0.625000
vt 0.375000 0.625000
vt 0.625000 0.656250
vt 0.375000 0.656250
vt 0.625000 0.687500
vt 0.375000 0.687500
vt 0.125000 0.500000
vt 0.125000 0.531250
vt 0.125000 0.562500
vt 0.125000 0.593750
vt 0.125000 0.625000
vt 0.125000 0.656250
vt 0.125000 0.687500
vt 0.375000 0.000000
vt 0.625000 0.000000
vt 0.625000 0.031250
vt 0.375000 0.031250
vt 0.625000 0.062500
vt 0.375000 0.062500
vt 0.625000 0.093750
vt 0.375000 0.093750
vt 0.625000 0.125000
vt 0.375000 0.125000
vt 0.625000 0.156250
vt 0.375000 0.156250
vt 0.625000 0.187500
vt 0.375000 0.187500
vt 0.875000 0.500000
vt 0.875000 0.531250
vt 0.875000 0.562500
vt 0.875000 0.593750
vt 0.875000 0.625000
vt 0.875000 0.656250
vt 0.875000 0.687500
s 0
usemtl Material
f 94/113/69 95/114/69 79/115/69 75/116/69
f 76/117/70 75/116/70 79/118/70 80/119/70
f 81/120/71 101/121/71 77/122/71 78/123/71
f 87/124/72 102/125/72 76/117/72 80/126/72
f 102/125/73 94/113/73 75/116/73 76/117/73
f 78/123/74 77/122/74 73/127/74 74/128/74
f 74/128/75 73/127/75 88/129/75 108/130/75
f 108/130/76 88/129/76 89/131/76 107/132/76
f 107/132/77 89/131/77 90/133/77 106/134/77
f 106/134/78 90/133/78 91/135/78 105/136/78
f 105/136/79 91/135/79 92/137/79 104/138/79
f 104/138/80 92/137/80 93/139/80 103/140/80
f 103/140/81 93/139/81 94/113/81 102/125/81
f 78/141/82 74/128/82 108/130/82 81/142/82
f 81/142/83 108/130/83 107/132/83 82/143/83
f 82/143/84 107/132/84 106/134/84 83/144/84
f 83/144/85 106/134/85 105/136/85 84/145/85
f 84/145/86 105/136/86 104/138/86 85/146/86
f 85/146/87 104/138/87 103/140/87 86/147/87
f 86/147/88 103/140/88 102/125/88 87/124/88
f 80/148/89 79/149/89 95/150/89 87/151/89
f 87/151/90 95/150/90 96/152/90 86/153/90
f 86/153/91 96/152/91 97/154/91 85/155/91
f 85/155/92 97/154/92 98/156/92 84/157/92
f 84/157/93 98/156/93 99/158/93 83/159/93
f 83/159/94 99/158/94 100/160/94 82/161/94
f 82/161/95 100/160/95 101/121/95 81/120/95
f 73/127/96 77/162/96 101/163/96 88/129/96
f 88/129/97 101/163/97 100/164/97 89/131/97
f 89/131/98 100/164/98 99/165/98 90/133/98
f 90/133/99 99/165/99 98/166/99 91/135/99
f 91/135/100 98/166/100 97/167/100 92/137/100
f 92/137/101 97/167/101 96/168/101 93/139/101
f 93/139/102 96/168/102 95/114/102 94/113/102
